# xmcd CD database file
#
# Track frame offsets:
#	183
#	43683
#	52908
#	88758
#	113808
#	146583
#	157983
#	190908
#	221958
#	236583
#	278983
#
# Disc length: 3842 seconds
#
# Revision: 0
# Processed by: cddbd v1.5.1PL0 Copyright (c) Steve Scherf et al.
# Submitted via: CDex 1.51
#
DISCID=9e0f000b
DTITLE=Michael Bisio Quartet - In Seattle
DYEAR=1987
DGENRE=Jazz
TTITLE0=For Harry Carney
TTITLE1=A Laugh For Rory
TTITLE2=Greenpeace (take 2)
TTITLE3=A.M.
TTITLE4=Blues For Melodius T.
TTITLE5=For Randy Weston
TTITLE6=Babs'e
TTITLE7=Greenpeace Suite
TTITLE8=Darkness
TTITLE9=For Pamela
TTITLE10=Sonny Miles
EXTD=YEAR: 1987
EXTT0=
EXTT1=
EXTT2=
EXTT3=
EXTT4=
EXTT5=
EXTT6=
EXTT7=
EXTT8=
EXTT9=
EXTT10=
PLAYORDER=
